<?xml version="1.0" standalone="no"?><!DOCTYPE svg PUBLIC "-//W3C//DTD SVG 1.1//EN" "http://www.w3.org/Graphics/SVG/1.1/DTD/svg11.dtd"><svg t="1757314455571" class="icon" viewBox="0 0 1024 1024" version="1.1" xmlns="http://www.w3.org/2000/svg" p-id="1088" xmlns:xlink="http://www.w3.org/1999/xlink" width="200" height="200"><path d="M47.0016 44.4928m382.5152 0l169.7792 0q382.5152 0 382.5152 382.5152l0 169.7792q0 382.5152-382.5152 382.5152l-169.7792 0q-382.5152 0-382.5152-382.5152l0-169.7792q0-382.5152 382.5152-382.5152Z" fill="#FFF5EE" p-id="1089"></path><path d="M335.2064 352l-96.7168 161.8944a90.8288 90.8288 0 0 0 39.424 126.4128L340.3264 670.72zM715.1104 351.6416l100.2496 162.2528a90.8288 90.8288 0 0 1-39.424 126.4128L713.5232 670.72z" fill="#FF8A33" p-id="1090"></path><path d="M340.3264 686.08a15.36 15.36 0 0 1-6.7072-1.536L271.36 654.1312a106.1888 106.1888 0 0 1-46.08-147.8144l96.7168-162.1504a15.36 15.36 0 0 1 28.5696 7.6288l5.12 318.5152a15.36 15.36 0 0 1-15.36 15.616z m-19.6096-279.8592l-69.0176 115.5584a75.4176 75.4176 0 0 0 32.9216 104.704l39.936 19.3536zM713.5232 686.08a15.8208 15.8208 0 0 1-8.192-2.3552 15.36 15.36 0 0 1-7.168-13.056l1.5872-318.976a15.36 15.36 0 0 1 28.4672-7.9872l100.1984 162.0992 0.3072 0.512a106.1888 106.1888 0 0 1-46.08 147.8144l-62.4128 30.2592a15.36 15.36 0 0 1-6.7072 1.6896z m16.6912-280.6272l-1.1776 240.64 40.192-19.5072a75.4176 75.4176 0 0 0 32.9216-104.7552z" fill="#434A54" p-id="1091"></path><path d="M306.3296 288.7168m110.8992 0l216.064 0q110.8992 0 110.8992 110.8992l0 234.5472q0 110.8992-110.8992 110.8992l-216.064 0q-110.8992 0-110.8992-110.8992l0-234.5472q0-110.8992 110.8992-110.8992Z" fill="#FFAB66" p-id="1092"></path><path d="M377.6 634.112v-234.496a110.8992 110.8992 0 0 1 110.8992-110.8992H417.2288a110.8992 110.8992 0 0 0-110.8992 110.8992v234.496a110.9504 110.9504 0 0 0 110.8992 110.9504h71.2704a110.8992 110.8992 0 0 1-110.8992-110.9504z" fill="#FFC89F" p-id="1093"></path><path d="M633.2928 288.7168h-67.1232a110.8992 110.8992 0 0 1 110.8992 110.8992v234.496a110.8992 110.8992 0 0 1-110.8992 110.9504h67.1232a110.9504 110.9504 0 0 0 110.8992-110.9504v-234.496a110.8992 110.8992 0 0 0-110.8992-110.8992z" fill="#FF8A33" p-id="1094"></path><path d="M633.6512 760.4224H416.8704a126.0544 126.0544 0 0 1-125.9008-125.9008V399.36a126.0544 126.0544 0 0 1 125.9008-126.0032h216.7808A126.0544 126.0544 0 0 1 759.552 399.36v235.52a126.0544 126.0544 0 0 1-125.9008 125.5424zM416.8704 304.0768A95.2832 95.2832 0 0 0 321.6896 399.36v235.52a95.2832 95.2832 0 0 0 95.1808 95.1808h216.7808A95.2832 95.2832 0 0 0 728.832 634.88V399.36a95.2832 95.2832 0 0 0-95.1808-95.1808z" fill="#434A54" p-id="1095"></path><path d="M401.92 451.6864m-28.1088 0a28.1088 28.1088 0 1 0 56.2176 0 28.1088 28.1088 0 1 0-56.2176 0Z" fill="#434A54" p-id="1096"></path><path d="M650.9056 451.6864m-28.1088 0a28.1088 28.1088 0 1 0 56.2176 0 28.1088 28.1088 0 1 0-56.2176 0Z" fill="#434A54" p-id="1097"></path><path d="M599.296 617.0624a58.1632 58.1632 0 0 1-37.9904-15.36c-11.264-10.8544-17.7152-27.1872-19.3024-48.64a30.72 30.72 0 1 0-31.3344 0c0 18.6368-7.424 54.8352-56.9856 64.1024a15.36 15.36 0 0 0 2.816 30.72 17.4592 17.4592 0 0 0 2.816 0c33.6896-6.3488 54.4768-22.6816 66.56-41.6768a82.8928 82.8928 0 0 0 14.4896 18.3296 88.6784 88.6784 0 0 0 58.6752 23.2448h1.28a15.36 15.36 0 0 0-1.1776-30.72z" fill="#434A54" p-id="1098"></path></svg>